<mxfile host="app.diagrams.net" modified="2022-02-28T10:48:24.324Z" agent="5.0 (Windows NT 10.0; Win64; x64) AppleWebKit/537.36 (KHTML, like Gecko) Chrome/98.0.4758.102 Safari/537.36" etag="y93yQ5Zr4zzED7H_YfHl" version="16.6.4" type="github">
  <diagram id="9yKypRTnIOfjDxW6X1A6" name="Page-1">
    <mxGraphModel dx="1422" dy="762" grid="1" gridSize="10" guides="1" tooltips="1" connect="1" arrows="1" fold="1" page="1" pageScale="1" pageWidth="850" pageHeight="1100" math="0" shadow="0">
      <root>
        <mxCell id="0" />
        <mxCell id="1" parent="0" />
        <mxCell id="4nutJmm4gSP-rhJOXTWd-1" value="" style="ellipse;html=1;shape=startState;fillColor=#000000;strokeColor=#ff0000;" vertex="1" parent="1">
          <mxGeometry x="285" y="50" width="30" height="30" as="geometry" />
        </mxCell>
        <mxCell id="4nutJmm4gSP-rhJOXTWd-2" value="" style="edgeStyle=orthogonalEdgeStyle;html=1;verticalAlign=bottom;endArrow=open;endSize=8;strokeColor=#ff0000;rounded=0;entryX=0.5;entryY=0;entryDx=0;entryDy=0;" edge="1" source="4nutJmm4gSP-rhJOXTWd-1" parent="1" target="4nutJmm4gSP-rhJOXTWd-3">
          <mxGeometry relative="1" as="geometry">
            <mxPoint x="285" y="130" as="targetPoint" />
          </mxGeometry>
        </mxCell>
        <mxCell id="4nutJmm4gSP-rhJOXTWd-3" value="Activity" style="rounded=1;whiteSpace=wrap;html=1;arcSize=40;fontColor=#000000;fillColor=#ffffc0;strokeColor=#ff0000;" vertex="1" parent="1">
          <mxGeometry x="240" y="150" width="120" height="40" as="geometry" />
        </mxCell>
        <mxCell id="4nutJmm4gSP-rhJOXTWd-4" value="" style="edgeStyle=orthogonalEdgeStyle;html=1;verticalAlign=bottom;endArrow=open;endSize=8;strokeColor=#ff0000;rounded=0;" edge="1" source="4nutJmm4gSP-rhJOXTWd-3" parent="1">
          <mxGeometry relative="1" as="geometry">
            <mxPoint x="300" y="250" as="targetPoint" />
          </mxGeometry>
        </mxCell>
        <mxCell id="4nutJmm4gSP-rhJOXTWd-7" value="Сценарий 1 &quot;Успешное" style="shape=note;whiteSpace=wrap;html=1;backgroundOutline=1;darkOpacity=0.05;" vertex="1" parent="1">
          <mxGeometry x="230" y="270" width="290" height="190" as="geometry" />
        </mxCell>
      </root>
    </mxGraphModel>
  </diagram>
</mxfile>
